<svg xmlns="http://www.w3.org/2000/svg" width="76" height="76" viewBox="0 0 76 76" fill="none">
<path fill-rule="evenodd" clip-rule="evenodd" d="M54.14 57.915L71.2325 75.0075C72.2075 75.9825 73.7925 75.9825 74.7675 75.0075C75.7425 74.0325 75.7425 72.4475 74.7675 71.4725L57.6775 54.38C62.5525 48.6975 65.5 41.31 65.5 33.24C65.5 15.3025 50.9375 0.74 33 0.74C15.0625 0.74 0.5 15.3025 0.5 33.24C0.5 51.1775 15.0625 65.74 33 65.74C41.07 65.74 48.4575 62.7925 54.14 57.915ZM33 5.74C48.1775 5.74 60.5 18.0625 60.5 33.24C60.5 48.4175 48.1775 60.74 33 60.74C17.8225 60.74 5.5 48.4175 5.5 33.24C5.5 18.0625 17.8225 5.74 33 5.74Z" fill="black"/>
<path fill-rule="evenodd" clip-rule="evenodd" d="M18.0002 26.775L16.2327 28.5425C15.2577 29.5175 15.2577 31.1025 16.2327 32.0775C17.2077 33.055 18.7927 33.055 19.7677 32.0775L21.5352 30.31L23.3027 32.0775C24.2802 33.055 25.8627 33.055 26.8402 32.0775C27.8152 31.1025 27.8152 29.5175 26.8402 28.5425L25.0702 26.775L26.8402 25.0075C27.8152 24.0325 27.8152 22.4475 26.8402 21.4725C25.8627 20.495 24.2802 20.495 23.3027 21.4725L21.5352 23.24L19.7677 21.4725C18.7927 20.495 17.2077 20.495 16.2327 21.4725C15.2577 22.4475 15.2577 24.0325 16.2327 25.0075L18.0002 26.775Z" fill="black"/>
<path fill-rule="evenodd" clip-rule="evenodd" d="M39.2502 26.775L37.4827 28.5425C36.5077 29.5175 36.5077 31.1025 37.4827 32.0775C38.4577 33.055 40.0427 33.055 41.0177 32.0775L42.7852 30.31L44.5527 32.0775C45.5302 33.055 47.1127 33.055 48.0902 32.0775C49.0652 31.1025 49.0652 29.5175 48.0902 28.5425L46.3202 26.775L48.0902 25.0075C49.0652 24.0325 49.0652 22.4475 48.0902 21.4725C47.1127 20.495 45.5302 20.495 44.5527 21.4725L42.7852 23.24L41.0177 21.4725C40.0427 20.495 38.4577 20.495 37.4827 21.4725C36.5077 22.4475 36.5077 24.0325 37.4827 25.0075L39.2502 26.775Z" fill="black"/>
<path fill-rule="evenodd" clip-rule="evenodd" d="M24.6727 47.5975C27.0302 45.475 29.3527 44.405 31.7102 44.4425C34.1177 44.48 36.4902 45.645 38.8977 47.6575C39.9552 48.5425 41.5327 48.4 42.4177 47.3425C43.3027 46.2825 43.1627 44.705 42.1027 43.82C38.6777 40.9575 35.2152 39.4975 31.7902 39.4425C28.3152 39.3875 24.8027 40.7525 21.3277 43.88C20.3027 44.805 20.2202 46.3875 21.1427 47.4125C22.0652 48.4375 23.6477 48.52 24.6727 47.5975Z" fill="black"/>
</svg>